<?xml version="1.0" encoding="utf-8" standalone="no"?>
<!DOCTYPE svg PUBLIC "-//W3C//DTD SVG 1.1//EN"
  "http://www.w3.org/Graphics/SVG/1.1/DTD/svg11.dtd">
<svg xmlns:xlink="http://www.w3.org/1999/xlink" width="672pt" height="672pt" viewBox="0 0 672 672" xmlns="http://www.w3.org/2000/svg" version="1.1">
 <metadata>
  <rdf:RDF xmlns:dc="http://purl.org/dc/elements/1.1/" xmlns:cc="http://creativecommons.org/ns#" xmlns:rdf="http://www.w3.org/1999/02/22-rdf-syntax-ns#">
   <cc:Work>
    <dc:type rdf:resource="http://purl.org/dc/dcmitype/StillImage"/>
    <dc:date>2023-01-20T21:43:04.812037</dc:date>
    <dc:format>image/svg+xml</dc:format>
    <dc:creator>
     <cc:Agent>
      <dc:title>Matplotlib v3.5.1, https://matplotlib.org/</dc:title>
     </cc:Agent>
    </dc:creator>
   </cc:Work>
  </rdf:RDF>
 </metadata>
 <defs>
  <style type="text/css">*{stroke-linejoin: round; stroke-linecap: butt}</style>
 </defs>
 <g id="figure_1">
  <g id="patch_1">
   <path d="M 0 672 
L 672 672 
L 672 0 
L 0 0 
z
" style="fill: #ffffff"/>
  </g>
  <g id="axes_1">
   <g id="patch_2">
    <path d="M 88.251667 603.473333 
L 643.590651 603.473333 
L 643.590651 35.293333 
L 88.251667 35.293333 
z
" style="fill: #eaeaf2"/>
   </g>
   <g id="matplotlib.axis_1">
    <g id="xtick_1">
     <g id="line2d_1">
      <path d="M 155.716798 603.473333 
L 155.716798 35.293333 
" clip-path="url(#p75ee6c1bd1)" style="fill: none; stroke: #ffffff; stroke-width: 1.75; stroke-linecap: round"/>
     </g>
     <g id="line2d_2">
      <defs>
       <path id="m0370c40904" d="M 0 0 
L 0 4.666667 
" style="stroke: #262626; stroke-width: 1.166667"/>
      </defs>
      <g>
       <use xlink:href="#m0370c40904" x="155.716798" y="603.473333" style="fill: #262626; stroke: #262626; stroke-width: 1.166667"/>
      </g>
     </g>
     <g id="text_1">
      <!-- 0.10 -->
      <g style="fill: #262626" transform="translate(138.572267 623.341594)scale(0.154 -0.154)">
       <defs>
        <path id="DejaVuSans-30" d="M 2034 4250 
Q 1547 4250 1301 3770 
Q 1056 3291 1056 2328 
Q 1056 1369 1301 889 
Q 1547 409 2034 409 
Q 2525 409 2770 889 
Q 3016 1369 3016 2328 
Q 3016 3291 2770 3770 
Q 2525 4250 2034 4250 
z
M 2034 4750 
Q 2819 4750 3233 4129 
Q 3647 3509 3647 2328 
Q 3647 1150 3233 529 
Q 2819 -91 2034 -91 
Q 1250 -91 836 529 
Q 422 1150 422 2328 
Q 422 3509 836 4129 
Q 1250 4750 2034 4750 
z
" transform="scale(0.015625)"/>
        <path id="DejaVuSans-2e" d="M 684 794 
L 1344 794 
L 1344 0 
L 684 0 
L 684 794 
z
" transform="scale(0.015625)"/>
        <path id="DejaVuSans-31" d="M 794 531 
L 1825 531 
L 1825 4091 
L 703 3866 
L 703 4441 
L 1819 4666 
L 2450 4666 
L 2450 531 
L 3481 531 
L 3481 0 
L 794 0 
L 794 531 
z
" transform="scale(0.015625)"/>
       </defs>
       <use xlink:href="#DejaVuSans-30"/>
       <use xlink:href="#DejaVuSans-2e" x="63.623047"/>
       <use xlink:href="#DejaVuSans-31" x="95.410156"/>
       <use xlink:href="#DejaVuSans-30" x="159.033203"/>
      </g>
     </g>
    </g>
    <g id="xtick_2">
     <g id="line2d_3">
      <path d="M 277.255228 603.473333 
L 277.255228 35.293333 
" clip-path="url(#p75ee6c1bd1)" style="fill: none; stroke: #ffffff; stroke-width: 1.75; stroke-linecap: round"/>
     </g>
     <g id="line2d_4">
      <g>
       <use xlink:href="#m0370c40904" x="277.255228" y="603.473333" style="fill: #262626; stroke: #262626; stroke-width: 1.166667"/>
      </g>
     </g>
     <g id="text_2">
      <!-- 0.15 -->
      <g style="fill: #262626" transform="translate(260.110697 623.341594)scale(0.154 -0.154)">
       <defs>
        <path id="DejaVuSans-35" d="M 691 4666 
L 3169 4666 
L 3169 4134 
L 1269 4134 
L 1269 2991 
Q 1406 3038 1543 3061 
Q 1681 3084 1819 3084 
Q 2600 3084 3056 2656 
Q 3513 2228 3513 1497 
Q 3513 744 3044 326 
Q 2575 -91 1722 -91 
Q 1428 -91 1123 -41 
Q 819 9 494 109 
L 494 744 
Q 775 591 1075 516 
Q 1375 441 1709 441 
Q 2250 441 2565 725 
Q 2881 1009 2881 1497 
Q 2881 1984 2565 2268 
Q 2250 2553 1709 2553 
Q 1456 2553 1204 2497 
Q 953 2441 691 2322 
L 691 4666 
z
" transform="scale(0.015625)"/>
       </defs>
       <use xlink:href="#DejaVuSans-30"/>
       <use xlink:href="#DejaVuSans-2e" x="63.623047"/>
       <use xlink:href="#DejaVuSans-31" x="95.410156"/>
       <use xlink:href="#DejaVuSans-35" x="159.033203"/>
      </g>
     </g>
    </g>
    <g id="xtick_3">
     <g id="line2d_5">
      <path d="M 398.793658 603.473333 
L 398.793658 35.293333 
" clip-path="url(#p75ee6c1bd1)" style="fill: none; stroke: #ffffff; stroke-width: 1.75; stroke-linecap: round"/>
     </g>
     <g id="line2d_6">
      <g>
       <use xlink:href="#m0370c40904" x="398.793658" y="603.473333" style="fill: #262626; stroke: #262626; stroke-width: 1.166667"/>
      </g>
     </g>
     <g id="text_3">
      <!-- 0.20 -->
      <g style="fill: #262626" transform="translate(381.649127 623.341594)scale(0.154 -0.154)">
       <defs>
        <path id="DejaVuSans-32" d="M 1228 531 
L 3431 531 
L 3431 0 
L 469 0 
L 469 531 
Q 828 903 1448 1529 
Q 2069 2156 2228 2338 
Q 2531 2678 2651 2914 
Q 2772 3150 2772 3378 
Q 2772 3750 2511 3984 
Q 2250 4219 1831 4219 
Q 1534 4219 1204 4116 
Q 875 4013 500 3803 
L 500 4441 
Q 881 4594 1212 4672 
Q 1544 4750 1819 4750 
Q 2544 4750 2975 4387 
Q 3406 4025 3406 3419 
Q 3406 3131 3298 2873 
Q 3191 2616 2906 2266 
Q 2828 2175 2409 1742 
Q 1991 1309 1228 531 
z
" transform="scale(0.015625)"/>
       </defs>
       <use xlink:href="#DejaVuSans-30"/>
       <use xlink:href="#DejaVuSans-2e" x="63.623047"/>
       <use xlink:href="#DejaVuSans-32" x="95.410156"/>
       <use xlink:href="#DejaVuSans-30" x="159.033203"/>
      </g>
     </g>
    </g>
    <g id="xtick_4">
     <g id="line2d_7">
      <path d="M 520.332088 603.473333 
L 520.332088 35.293333 
" clip-path="url(#p75ee6c1bd1)" style="fill: none; stroke: #ffffff; stroke-width: 1.75; stroke-linecap: round"/>
     </g>
     <g id="line2d_8">
      <g>
       <use xlink:href="#m0370c40904" x="520.332088" y="603.473333" style="fill: #262626; stroke: #262626; stroke-width: 1.166667"/>
      </g>
     </g>
     <g id="text_4">
      <!-- 0.25 -->
      <g style="fill: #262626" transform="translate(503.187556 623.341594)scale(0.154 -0.154)">
       <use xlink:href="#DejaVuSans-30"/>
       <use xlink:href="#DejaVuSans-2e" x="63.623047"/>
       <use xlink:href="#DejaVuSans-32" x="95.410156"/>
       <use xlink:href="#DejaVuSans-35" x="159.033203"/>
      </g>
     </g>
    </g>
    <g id="xtick_5">
     <g id="line2d_9">
      <path d="M 641.870517 603.473333 
L 641.870517 35.293333 
" clip-path="url(#p75ee6c1bd1)" style="fill: none; stroke: #ffffff; stroke-width: 1.75; stroke-linecap: round"/>
     </g>
     <g id="line2d_10">
      <g>
       <use xlink:href="#m0370c40904" x="641.870517" y="603.473333" style="fill: #262626; stroke: #262626; stroke-width: 1.166667"/>
      </g>
     </g>
     <g id="text_5">
      <!-- 0.30 -->
      <g style="fill: #262626" transform="translate(624.725986 623.341594)scale(0.154 -0.154)">
       <defs>
        <path id="DejaVuSans-33" d="M 2597 2516 
Q 3050 2419 3304 2112 
Q 3559 1806 3559 1356 
Q 3559 666 3084 287 
Q 2609 -91 1734 -91 
Q 1441 -91 1130 -33 
Q 819 25 488 141 
L 488 750 
Q 750 597 1062 519 
Q 1375 441 1716 441 
Q 2309 441 2620 675 
Q 2931 909 2931 1356 
Q 2931 1769 2642 2001 
Q 2353 2234 1838 2234 
L 1294 2234 
L 1294 2753 
L 1863 2753 
Q 2328 2753 2575 2939 
Q 2822 3125 2822 3475 
Q 2822 3834 2567 4026 
Q 2313 4219 1838 4219 
Q 1578 4219 1281 4162 
Q 984 4106 628 3988 
L 628 4550 
Q 988 4650 1302 4700 
Q 1616 4750 1894 4750 
Q 2613 4750 3031 4423 
Q 3450 4097 3450 3541 
Q 3450 3153 3228 2886 
Q 3006 2619 2597 2516 
z
" transform="scale(0.015625)"/>
       </defs>
       <use xlink:href="#DejaVuSans-30"/>
       <use xlink:href="#DejaVuSans-2e" x="63.623047"/>
       <use xlink:href="#DejaVuSans-33" x="95.410156"/>
       <use xlink:href="#DejaVuSans-30" x="159.033203"/>
      </g>
     </g>
    </g>
    <g id="text_6">
     <!-- MCC: $\mathcal{M}_{\rm test}$ (AC-Classification) -->
     <g style="fill: #262626" transform="translate(251.037159 652.245906)scale(0.154 -0.154)">
      <defs>
       <path id="DejaVuSans-4d" d="M 628 4666 
L 1569 4666 
L 2759 1491 
L 3956 4666 
L 4897 4666 
L 4897 0 
L 4281 0 
L 4281 4097 
L 3078 897 
L 2444 897 
L 1241 4097 
L 1241 0 
L 628 0 
L 628 4666 
z
" transform="scale(0.015625)"/>
       <path id="DejaVuSans-43" d="M 4122 4306 
L 4122 3641 
Q 3803 3938 3442 4084 
Q 3081 4231 2675 4231 
Q 1875 4231 1450 3742 
Q 1025 3253 1025 2328 
Q 1025 1406 1450 917 
Q 1875 428 2675 428 
Q 3081 428 3442 575 
Q 3803 722 4122 1019 
L 4122 359 
Q 3791 134 3420 21 
Q 3050 -91 2638 -91 
Q 1578 -91 968 557 
Q 359 1206 359 2328 
Q 359 3453 968 4101 
Q 1578 4750 2638 4750 
Q 3056 4750 3426 4639 
Q 3797 4528 4122 4306 
z
" transform="scale(0.015625)"/>
       <path id="DejaVuSans-3a" d="M 750 794 
L 1409 794 
L 1409 0 
L 750 0 
L 750 794 
z
M 750 3309 
L 1409 3309 
L 1409 2516 
L 750 2516 
L 750 3309 
z
" transform="scale(0.015625)"/>
       <path id="DejaVuSans-20" transform="scale(0.015625)"/>
       <path id="STIXNonUnicode-Italic-e239" d="M 7123 346 
L 7219 224 
Q 6912 -205 6310 -205 
Q 6208 -205 6096 -169 
Q 5984 -134 5865 -12 
Q 5747 109 5747 307 
Q 5747 384 5779 653 
L 6061 3181 
L 6042 3181 
L 3405 51 
L 3309 51 
Q 2682 1382 2413 2650 
L 2406 2650 
Q 2400 2611 2345 2390 
Q 2291 2170 2265 2061 
Q 2240 1952 2179 1725 
Q 2118 1498 2060 1338 
Q 2003 1178 1926 976 
Q 1850 774 1760 592 
Q 1670 410 1568 250 
Q 1229 -288 813 -288 
Q 576 -288 416 -131 
Q 256 26 256 250 
Q 256 422 345 528 
Q 435 634 595 634 
Q 698 634 768 576 
Q 838 518 867 451 
Q 896 384 947 326 
Q 998 269 1062 269 
Q 1274 269 1446 570 
Q 1555 762 1673 1088 
Q 1792 1414 1881 1731 
Q 1971 2048 2076 2483 
Q 2182 2918 2236 3187 
Q 2291 3456 2371 3840 
Q 2451 4224 2464 4294 
L 2656 4294 
Q 2931 3136 3168 2329 
Q 3405 1523 3738 838 
L 6662 4294 
L 6835 4294 
L 6445 730 
Q 6432 614 6432 544 
Q 6432 173 6714 173 
Q 6950 173 7123 346 
z
" transform="scale(0.015625)"/>
       <path id="DejaVuSans-74" d="M 1172 4494 
L 1172 3500 
L 2356 3500 
L 2356 3053 
L 1172 3053 
L 1172 1153 
Q 1172 725 1289 603 
Q 1406 481 1766 481 
L 2356 481 
L 2356 0 
L 1766 0 
Q 1100 0 847 248 
Q 594 497 594 1153 
L 594 3053 
L 172 3053 
L 172 3500 
L 594 3500 
L 594 4494 
L 1172 4494 
z
" transform="scale(0.015625)"/>
       <path id="DejaVuSans-65" d="M 3597 1894 
L 3597 1613 
L 953 1613 
Q 991 1019 1311 708 
Q 1631 397 2203 397 
Q 2534 397 2845 478 
Q 3156 559 3463 722 
L 3463 178 
Q 3153 47 2828 -22 
Q 2503 -91 2169 -91 
Q 1331 -91 842 396 
Q 353 884 353 1716 
Q 353 2575 817 3079 
Q 1281 3584 2069 3584 
Q 2775 3584 3186 3129 
Q 3597 2675 3597 1894 
z
M 3022 2063 
Q 3016 2534 2758 2815 
Q 2500 3097 2075 3097 
Q 1594 3097 1305 2825 
Q 1016 2553 972 2059 
L 3022 2063 
z
" transform="scale(0.015625)"/>
       <path id="DejaVuSans-73" d="M 2834 3397 
L 2834 2853 
Q 2591 2978 2328 3040 
Q 2066 3103 1784 3103 
Q 1356 3103 1142 2972 
Q 928 2841 928 2578 
Q 928 2378 1081 2264 
Q 1234 2150 1697 2047 
L 1894 2003 
Q 2506 1872 2764 1633 
Q 3022 1394 3022 966 
Q 3022 478 2636 193 
Q 2250 -91 1575 -91 
Q 1294 -91 989 -36 
Q 684 19 347 128 
L 347 722 
Q 666 556 975 473 
Q 1284 391 1588 391 
Q 1994 391 2212 530 
Q 2431 669 2431 922 
Q 2431 1156 2273 1281 
Q 2116 1406 1581 1522 
L 1381 1569 
Q 847 1681 609 1914 
Q 372 2147 372 2553 
Q 372 3047 722 3315 
Q 1072 3584 1716 3584 
Q 2034 3584 2315 3537 
Q 2597 3491 2834 3397 
z
" transform="scale(0.015625)"/>
       <path id="DejaVuSans-28" d="M 1984 4856 
Q 1566 4138 1362 3434 
Q 1159 2731 1159 2009 
Q 1159 1288 1364 580 
Q 1569 -128 1984 -844 
L 1484 -844 
Q 1016 -109 783 600 
Q 550 1309 550 2009 
Q 550 2706 781 3412 
Q 1013 4119 1484 4856 
L 1984 4856 
z
" transform="scale(0.015625)"/>
       <path id="DejaVuSans-41" d="M 2188 4044 
L 1331 1722 
L 3047 1722 
L 2188 4044 
z
M 1831 4666 
L 2547 4666 
L 4325 0 
L 3669 0 
L 3244 1197 
L 1141 1197 
L 716 0 
L 50 0 
L 1831 4666 
z
" transform="scale(0.015625)"/>
       <path id="DejaVuSans-2d" d="M 313 2009 
L 1997 2009 
L 1997 1497 
L 313 1497 
L 313 2009 
z
" transform="scale(0.015625)"/>
       <path id="DejaVuSans-6c" d="M 603 4863 
L 1178 4863 
L 1178 0 
L 603 0 
L 603 4863 
z
" transform="scale(0.015625)"/>
       <path id="DejaVuSans-61" d="M 2194 1759 
Q 1497 1759 1228 1600 
Q 959 1441 959 1056 
Q 959 750 1161 570 
Q 1363 391 1709 391 
Q 2188 391 2477 730 
Q 2766 1069 2766 1631 
L 2766 1759 
L 2194 1759 
z
M 3341 1997 
L 3341 0 
L 2766 0 
L 2766 531 
Q 2569 213 2275 61 
Q 1981 -91 1556 -91 
Q 1019 -91 701 211 
Q 384 513 384 1019 
Q 384 1609 779 1909 
Q 1175 2209 1959 2209 
L 2766 2209 
L 2766 2266 
Q 2766 2663 2505 2880 
Q 2244 3097 1772 3097 
Q 1472 3097 1187 3025 
Q 903 2953 641 2809 
L 641 3341 
Q 956 3463 1253 3523 
Q 1550 3584 1831 3584 
Q 2591 3584 2966 3190 
Q 3341 2797 3341 1997 
z
" transform="scale(0.015625)"/>
       <path id="DejaVuSans-69" d="M 603 3500 
L 1178 3500 
L 1178 0 
L 603 0 
L 603 3500 
z
M 603 4863 
L 1178 4863 
L 1178 4134 
L 603 4134 
L 603 4863 
z
" transform="scale(0.015625)"/>
       <path id="DejaVuSans-66" d="M 2375 4863 
L 2375 4384 
L 1825 4384 
Q 1516 4384 1395 4259 
Q 1275 4134 1275 3809 
L 1275 3500 
L 2222 3500 
L 2222 3053 
L 1275 3053 
L 1275 0 
L 697 0 
L 697 3053 
L 147 3053 
L 147 3500 
L 697 3500 
L 697 3744 
Q 697 4328 969 4595 
Q 1241 4863 1831 4863 
L 2375 4863 
z
" transform="scale(0.015625)"/>
       <path id="DejaVuSans-63" d="M 3122 3366 
L 3122 2828 
Q 2878 2963 2633 3030 
Q 2388 3097 2138 3097 
Q 1578 3097 1268 2742 
Q 959 2388 959 1747 
Q 959 1106 1268 751 
Q 1578 397 2138 397 
Q 2388 397 2633 464 
Q 2878 531 3122 666 
L 3122 134 
Q 2881 22 2623 -34 
Q 2366 -91 2075 -91 
Q 1284 -91 818 406 
Q 353 903 353 1747 
Q 353 2603 823 3093 
Q 1294 3584 2113 3584 
Q 2378 3584 2631 3529 
Q 2884 3475 3122 3366 
z
" transform="scale(0.015625)"/>
       <path id="DejaVuSans-6f" d="M 1959 3097 
Q 1497 3097 1228 2736 
Q 959 2375 959 1747 
Q 959 1119 1226 758 
Q 1494 397 1959 397 
Q 2419 397 2687 759 
Q 2956 1122 2956 1747 
Q 2956 2369 2687 2733 
Q 2419 3097 1959 3097 
z
M 1959 3584 
Q 2709 3584 3137 3096 
Q 3566 2609 3566 1747 
Q 3566 888 3137 398 
Q 2709 -91 1959 -91 
Q 1206 -91 779 398 
Q 353 888 353 1747 
Q 353 2609 779 3096 
Q 1206 3584 1959 3584 
z
" transform="scale(0.015625)"/>
       <path id="DejaVuSans-6e" d="M 3513 2113 
L 3513 0 
L 2938 0 
L 2938 2094 
Q 2938 2591 2744 2837 
Q 2550 3084 2163 3084 
Q 1697 3084 1428 2787 
Q 1159 2491 1159 1978 
L 1159 0 
L 581 0 
L 581 3500 
L 1159 3500 
L 1159 2956 
Q 1366 3272 1645 3428 
Q 1925 3584 2291 3584 
Q 2894 3584 3203 3211 
Q 3513 2838 3513 2113 
z
" transform="scale(0.015625)"/>
       <path id="DejaVuSans-29" d="M 513 4856 
L 1013 4856 
Q 1481 4119 1714 3412 
Q 1947 2706 1947 2009 
Q 1947 1309 1714 600 
Q 1481 -109 1013 -844 
L 513 -844 
Q 928 -128 1133 580 
Q 1338 1288 1338 2009 
Q 1338 2731 1133 3434 
Q 928 4138 513 4856 
z
" transform="scale(0.015625)"/>
      </defs>
      <use xlink:href="#DejaVuSans-4d" transform="translate(0 0.015625)"/>
      <use xlink:href="#DejaVuSans-43" transform="translate(86.279297 0.015625)"/>
      <use xlink:href="#DejaVuSans-43" transform="translate(156.103516 0.015625)"/>
      <use xlink:href="#DejaVuSans-3a" transform="translate(225.927734 0.015625)"/>
      <use xlink:href="#DejaVuSans-20" transform="translate(259.619141 0.015625)"/>
      <use xlink:href="#STIXNonUnicode-Italic-e239" transform="translate(291.40625 0.015625)"/>
      <use xlink:href="#DejaVuSans-74" transform="translate(408.963272 -16.390625)scale(0.7)"/>
      <use xlink:href="#DejaVuSans-65" transform="translate(436.409561 -16.390625)scale(0.7)"/>
      <use xlink:href="#DejaVuSans-73" transform="translate(479.475967 -16.390625)scale(0.7)"/>
      <use xlink:href="#DejaVuSans-74" transform="translate(515.945694 -16.390625)scale(0.7)"/>
      <use xlink:href="#DejaVuSans-20" transform="translate(546.126358 0.015625)"/>
      <use xlink:href="#DejaVuSans-28" transform="translate(577.913467 0.015625)"/>
      <use xlink:href="#DejaVuSans-41" transform="translate(616.927139 0.015625)"/>
      <use xlink:href="#DejaVuSans-43" transform="translate(685.335342 0.015625)"/>
      <use xlink:href="#DejaVuSans-2d" transform="translate(755.159561 0.015625)"/>
      <use xlink:href="#DejaVuSans-43" transform="translate(791.243546 0.015625)"/>
      <use xlink:href="#DejaVuSans-6c" transform="translate(861.067764 0.015625)"/>
      <use xlink:href="#DejaVuSans-61" transform="translate(888.850967 0.015625)"/>
      <use xlink:href="#DejaVuSans-73" transform="translate(950.130264 0.015625)"/>
      <use xlink:href="#DejaVuSans-73" transform="translate(1002.229874 0.015625)"/>
      <use xlink:href="#DejaVuSans-69" transform="translate(1054.329483 0.015625)"/>
      <use xlink:href="#DejaVuSans-66" transform="translate(1082.112686 0.015625)"/>
      <use xlink:href="#DejaVuSans-69" transform="translate(1117.317764 0.015625)"/>
      <use xlink:href="#DejaVuSans-63" transform="translate(1145.100967 0.015625)"/>
      <use xlink:href="#DejaVuSans-61" transform="translate(1200.081436 0.015625)"/>
      <use xlink:href="#DejaVuSans-74" transform="translate(1261.360733 0.015625)"/>
      <use xlink:href="#DejaVuSans-69" transform="translate(1300.569717 0.015625)"/>
      <use xlink:href="#DejaVuSans-6f" transform="translate(1328.352921 0.015625)"/>
      <use xlink:href="#DejaVuSans-6e" transform="translate(1389.534561 0.015625)"/>
      <use xlink:href="#DejaVuSans-29" transform="translate(1452.913467 0.015625)"/>
     </g>
    </g>
   </g>
   <g id="matplotlib.axis_2">
    <g id="ytick_1">
     <g id="line2d_11">
      <path d="M 88.251667 549.658569 
L 643.590651 549.658569 
" clip-path="url(#p75ee6c1bd1)" style="fill: none; stroke: #ffffff; stroke-width: 1.75; stroke-linecap: round"/>
     </g>
     <g id="line2d_12">
      <defs>
       <path id="m79b09e78e3" d="M 0 0 
L -4.666667 0 
" style="stroke: #262626; stroke-width: 1.166667"/>
      </defs>
      <g>
       <use xlink:href="#m79b09e78e3" x="88.251667" y="549.658569" style="fill: #262626; stroke: #262626; stroke-width: 1.166667"/>
      </g>
     </g>
     <g id="text_7">
      <!-- 0.46 -->
      <g style="fill: #262626" transform="translate(45.795938 555.509366)scale(0.154 -0.154)">
       <defs>
        <path id="DejaVuSans-34" d="M 2419 4116 
L 825 1625 
L 2419 1625 
L 2419 4116 
z
M 2253 4666 
L 3047 4666 
L 3047 1625 
L 3713 1625 
L 3713 1100 
L 3047 1100 
L 3047 0 
L 2419 0 
L 2419 1100 
L 313 1100 
L 313 1709 
L 2253 4666 
z
" transform="scale(0.015625)"/>
        <path id="DejaVuSans-36" d="M 2113 2584 
Q 1688 2584 1439 2293 
Q 1191 2003 1191 1497 
Q 1191 994 1439 701 
Q 1688 409 2113 409 
Q 2538 409 2786 701 
Q 3034 994 3034 1497 
Q 3034 2003 2786 2293 
Q 2538 2584 2113 2584 
z
M 3366 4563 
L 3366 3988 
Q 3128 4100 2886 4159 
Q 2644 4219 2406 4219 
Q 1781 4219 1451 3797 
Q 1122 3375 1075 2522 
Q 1259 2794 1537 2939 
Q 1816 3084 2150 3084 
Q 2853 3084 3261 2657 
Q 3669 2231 3669 1497 
Q 3669 778 3244 343 
Q 2819 -91 2113 -91 
Q 1303 -91 875 529 
Q 447 1150 447 2328 
Q 447 3434 972 4092 
Q 1497 4750 2381 4750 
Q 2619 4750 2861 4703 
Q 3103 4656 3366 4563 
z
" transform="scale(0.015625)"/>
       </defs>
       <use xlink:href="#DejaVuSans-30"/>
       <use xlink:href="#DejaVuSans-2e" x="63.623047"/>
       <use xlink:href="#DejaVuSans-34" x="95.410156"/>
       <use xlink:href="#DejaVuSans-36" x="159.033203"/>
      </g>
     </g>
    </g>
    <g id="ytick_2">
     <g id="line2d_13">
      <path d="M 88.251667 463.778234 
L 643.590651 463.778234 
" clip-path="url(#p75ee6c1bd1)" style="fill: none; stroke: #ffffff; stroke-width: 1.75; stroke-linecap: round"/>
     </g>
     <g id="line2d_14">
      <g>
       <use xlink:href="#m79b09e78e3" x="88.251667" y="463.778234" style="fill: #262626; stroke: #262626; stroke-width: 1.166667"/>
      </g>
     </g>
     <g id="text_8">
      <!-- 0.48 -->
      <g style="fill: #262626" transform="translate(45.795938 469.629031)scale(0.154 -0.154)">
       <defs>
        <path id="DejaVuSans-38" d="M 2034 2216 
Q 1584 2216 1326 1975 
Q 1069 1734 1069 1313 
Q 1069 891 1326 650 
Q 1584 409 2034 409 
Q 2484 409 2743 651 
Q 3003 894 3003 1313 
Q 3003 1734 2745 1975 
Q 2488 2216 2034 2216 
z
M 1403 2484 
Q 997 2584 770 2862 
Q 544 3141 544 3541 
Q 544 4100 942 4425 
Q 1341 4750 2034 4750 
Q 2731 4750 3128 4425 
Q 3525 4100 3525 3541 
Q 3525 3141 3298 2862 
Q 3072 2584 2669 2484 
Q 3125 2378 3379 2068 
Q 3634 1759 3634 1313 
Q 3634 634 3220 271 
Q 2806 -91 2034 -91 
Q 1263 -91 848 271 
Q 434 634 434 1313 
Q 434 1759 690 2068 
Q 947 2378 1403 2484 
z
M 1172 3481 
Q 1172 3119 1398 2916 
Q 1625 2713 2034 2713 
Q 2441 2713 2670 2916 
Q 2900 3119 2900 3481 
Q 2900 3844 2670 4047 
Q 2441 4250 2034 4250 
Q 1625 4250 1398 4047 
Q 1172 3844 1172 3481 
z
" transform="scale(0.015625)"/>
       </defs>
       <use xlink:href="#DejaVuSans-30"/>
       <use xlink:href="#DejaVuSans-2e" x="63.623047"/>
       <use xlink:href="#DejaVuSans-34" x="95.410156"/>
       <use xlink:href="#DejaVuSans-38" x="159.033203"/>
      </g>
     </g>
    </g>
    <g id="ytick_3">
     <g id="line2d_15">
      <path d="M 88.251667 377.897899 
L 643.590651 377.897899 
" clip-path="url(#p75ee6c1bd1)" style="fill: none; stroke: #ffffff; stroke-width: 1.75; stroke-linecap: round"/>
     </g>
     <g id="line2d_16">
      <g>
       <use xlink:href="#m79b09e78e3" x="88.251667" y="377.897899" style="fill: #262626; stroke: #262626; stroke-width: 1.166667"/>
      </g>
     </g>
     <g id="text_9">
      <!-- 0.50 -->
      <g style="fill: #262626" transform="translate(45.795938 383.748696)scale(0.154 -0.154)">
       <use xlink:href="#DejaVuSans-30"/>
       <use xlink:href="#DejaVuSans-2e" x="63.623047"/>
       <use xlink:href="#DejaVuSans-35" x="95.410156"/>
       <use xlink:href="#DejaVuSans-30" x="159.033203"/>
      </g>
     </g>
    </g>
    <g id="ytick_4">
     <g id="line2d_17">
      <path d="M 88.251667 292.017565 
L 643.590651 292.017565 
" clip-path="url(#p75ee6c1bd1)" style="fill: none; stroke: #ffffff; stroke-width: 1.75; stroke-linecap: round"/>
     </g>
     <g id="line2d_18">
      <g>
       <use xlink:href="#m79b09e78e3" x="88.251667" y="292.017565" style="fill: #262626; stroke: #262626; stroke-width: 1.166667"/>
      </g>
     </g>
     <g id="text_10">
      <!-- 0.52 -->
      <g style="fill: #262626" transform="translate(45.795938 297.868362)scale(0.154 -0.154)">
       <use xlink:href="#DejaVuSans-30"/>
       <use xlink:href="#DejaVuSans-2e" x="63.623047"/>
       <use xlink:href="#DejaVuSans-35" x="95.410156"/>
       <use xlink:href="#DejaVuSans-32" x="159.033203"/>
      </g>
     </g>
    </g>
    <g id="ytick_5">
     <g id="line2d_19">
      <path d="M 88.251667 206.13723 
L 643.590651 206.13723 
" clip-path="url(#p75ee6c1bd1)" style="fill: none; stroke: #ffffff; stroke-width: 1.75; stroke-linecap: round"/>
     </g>
     <g id="line2d_20">
      <g>
       <use xlink:href="#m79b09e78e3" x="88.251667" y="206.13723" style="fill: #262626; stroke: #262626; stroke-width: 1.166667"/>
      </g>
     </g>
     <g id="text_11">
      <!-- 0.54 -->
      <g style="fill: #262626" transform="translate(45.795938 211.988027)scale(0.154 -0.154)">
       <use xlink:href="#DejaVuSans-30"/>
       <use xlink:href="#DejaVuSans-2e" x="63.623047"/>
       <use xlink:href="#DejaVuSans-35" x="95.410156"/>
       <use xlink:href="#DejaVuSans-34" x="159.033203"/>
      </g>
     </g>
    </g>
    <g id="ytick_6">
     <g id="line2d_21">
      <path d="M 88.251667 120.256895 
L 643.590651 120.256895 
" clip-path="url(#p75ee6c1bd1)" style="fill: none; stroke: #ffffff; stroke-width: 1.75; stroke-linecap: round"/>
     </g>
     <g id="line2d_22">
      <g>
       <use xlink:href="#m79b09e78e3" x="88.251667" y="120.256895" style="fill: #262626; stroke: #262626; stroke-width: 1.166667"/>
      </g>
     </g>
     <g id="text_12">
      <!-- 0.56 -->
      <g style="fill: #262626" transform="translate(45.795938 126.107692)scale(0.154 -0.154)">
       <use xlink:href="#DejaVuSans-30"/>
       <use xlink:href="#DejaVuSans-2e" x="63.623047"/>
       <use xlink:href="#DejaVuSans-35" x="95.410156"/>
       <use xlink:href="#DejaVuSans-36" x="159.033203"/>
      </g>
     </g>
    </g>
    <g id="text_13">
     <!-- MAE (pK$_{\mathrm{i}}$ units): $\mathcal{D}_{\rm test}$ (QSAR-Prediction) -->
     <g style="fill: #262626" transform="translate(28.561937 470.919333)rotate(-90)scale(0.154 -0.154)">
      <defs>
       <path id="DejaVuSans-45" d="M 628 4666 
L 3578 4666 
L 3578 4134 
L 1259 4134 
L 1259 2753 
L 3481 2753 
L 3481 2222 
L 1259 2222 
L 1259 531 
L 3634 531 
L 3634 0 
L 628 0 
L 628 4666 
z
" transform="scale(0.015625)"/>
       <path id="DejaVuSans-70" d="M 1159 525 
L 1159 -1331 
L 581 -1331 
L 581 3500 
L 1159 3500 
L 1159 2969 
Q 1341 3281 1617 3432 
Q 1894 3584 2278 3584 
Q 2916 3584 3314 3078 
Q 3713 2572 3713 1747 
Q 3713 922 3314 415 
Q 2916 -91 2278 -91 
Q 1894 -91 1617 61 
Q 1341 213 1159 525 
z
M 3116 1747 
Q 3116 2381 2855 2742 
Q 2594 3103 2138 3103 
Q 1681 3103 1420 2742 
Q 1159 2381 1159 1747 
Q 1159 1113 1420 752 
Q 1681 391 2138 391 
Q 2594 391 2855 752 
Q 3116 1113 3116 1747 
z
" transform="scale(0.015625)"/>
       <path id="DejaVuSans-4b" d="M 628 4666 
L 1259 4666 
L 1259 2694 
L 3353 4666 
L 4166 4666 
L 1850 2491 
L 4331 0 
L 3500 0 
L 1259 2247 
L 1259 0 
L 628 0 
L 628 4666 
z
" transform="scale(0.015625)"/>
       <path id="DejaVuSans-75" d="M 544 1381 
L 544 3500 
L 1119 3500 
L 1119 1403 
Q 1119 906 1312 657 
Q 1506 409 1894 409 
Q 2359 409 2629 706 
Q 2900 1003 2900 1516 
L 2900 3500 
L 3475 3500 
L 3475 0 
L 2900 0 
L 2900 538 
Q 2691 219 2414 64 
Q 2138 -91 1772 -91 
Q 1169 -91 856 284 
Q 544 659 544 1381 
z
M 1991 3584 
L 1991 3584 
z
" transform="scale(0.015625)"/>
       <path id="STIXNonUnicode-Italic-e230" d="M 314 3418 
L 218 3539 
Q 621 3923 1126 4083 
Q 1619 4237 2490 4237 
Q 3475 4237 4028 4080 
Q 4582 3923 4812 3596 
Q 5043 3270 5043 2701 
Q 5043 2349 4950 1993 
Q 4858 1638 4634 1273 
Q 4410 909 4070 630 
Q 3731 352 3190 176 
Q 2650 0 1978 0 
L 333 0 
L 378 154 
Q 576 154 678 275 
Q 781 397 870 710 
L 1491 2867 
Q 1517 2957 1581 3155 
Q 1645 3354 1673 3466 
Q 1702 3578 1702 3642 
Q 1702 3878 1414 3878 
Q 877 3878 314 3418 
z
M 2438 3750 
L 1510 557 
Q 1478 454 1478 390 
Q 1478 307 1568 281 
Q 1658 256 1856 256 
Q 2093 256 2355 297 
Q 2618 339 2989 489 
Q 3360 640 3645 886 
Q 3930 1133 4134 1597 
Q 4339 2061 4339 2675 
Q 4339 3328 3977 3654 
Q 3616 3981 2758 3981 
Q 2643 3981 2553 3913 
Q 2464 3846 2438 3750 
z
" transform="scale(0.015625)"/>
       <path id="DejaVuSans-51" d="M 2522 4238 
Q 1834 4238 1429 3725 
Q 1025 3213 1025 2328 
Q 1025 1447 1429 934 
Q 1834 422 2522 422 
Q 3209 422 3611 934 
Q 4013 1447 4013 2328 
Q 4013 3213 3611 3725 
Q 3209 4238 2522 4238 
z
M 3406 84 
L 4238 -825 
L 3475 -825 
L 2784 -78 
Q 2681 -84 2626 -87 
Q 2572 -91 2522 -91 
Q 1538 -91 948 567 
Q 359 1225 359 2328 
Q 359 3434 948 4092 
Q 1538 4750 2522 4750 
Q 3503 4750 4090 4092 
Q 4678 3434 4678 2328 
Q 4678 1516 4351 937 
Q 4025 359 3406 84 
z
" transform="scale(0.015625)"/>
       <path id="DejaVuSans-53" d="M 3425 4513 
L 3425 3897 
Q 3066 4069 2747 4153 
Q 2428 4238 2131 4238 
Q 1616 4238 1336 4038 
Q 1056 3838 1056 3469 
Q 1056 3159 1242 3001 
Q 1428 2844 1947 2747 
L 2328 2669 
Q 3034 2534 3370 2195 
Q 3706 1856 3706 1288 
Q 3706 609 3251 259 
Q 2797 -91 1919 -91 
Q 1588 -91 1214 -16 
Q 841 59 441 206 
L 441 856 
Q 825 641 1194 531 
Q 1563 422 1919 422 
Q 2459 422 2753 634 
Q 3047 847 3047 1241 
Q 3047 1584 2836 1778 
Q 2625 1972 2144 2069 
L 1759 2144 
Q 1053 2284 737 2584 
Q 422 2884 422 3419 
Q 422 4038 858 4394 
Q 1294 4750 2059 4750 
Q 2388 4750 2728 4690 
Q 3069 4631 3425 4513 
z
" transform="scale(0.015625)"/>
       <path id="DejaVuSans-52" d="M 2841 2188 
Q 3044 2119 3236 1894 
Q 3428 1669 3622 1275 
L 4263 0 
L 3584 0 
L 2988 1197 
Q 2756 1666 2539 1819 
Q 2322 1972 1947 1972 
L 1259 1972 
L 1259 0 
L 628 0 
L 628 4666 
L 2053 4666 
Q 2853 4666 3247 4331 
Q 3641 3997 3641 3322 
Q 3641 2881 3436 2590 
Q 3231 2300 2841 2188 
z
M 1259 4147 
L 1259 2491 
L 2053 2491 
Q 2509 2491 2742 2702 
Q 2975 2913 2975 3322 
Q 2975 3731 2742 3939 
Q 2509 4147 2053 4147 
L 1259 4147 
z
" transform="scale(0.015625)"/>
       <path id="DejaVuSans-50" d="M 1259 4147 
L 1259 2394 
L 2053 2394 
Q 2494 2394 2734 2622 
Q 2975 2850 2975 3272 
Q 2975 3691 2734 3919 
Q 2494 4147 2053 4147 
L 1259 4147 
z
M 628 4666 
L 2053 4666 
Q 2838 4666 3239 4311 
Q 3641 3956 3641 3272 
Q 3641 2581 3239 2228 
Q 2838 1875 2053 1875 
L 1259 1875 
L 1259 0 
L 628 0 
L 628 4666 
z
" transform="scale(0.015625)"/>
       <path id="DejaVuSans-72" d="M 2631 2963 
Q 2534 3019 2420 3045 
Q 2306 3072 2169 3072 
Q 1681 3072 1420 2755 
Q 1159 2438 1159 1844 
L 1159 0 
L 581 0 
L 581 3500 
L 1159 3500 
L 1159 2956 
Q 1341 3275 1631 3429 
Q 1922 3584 2338 3584 
Q 2397 3584 2469 3576 
Q 2541 3569 2628 3553 
L 2631 2963 
z
" transform="scale(0.015625)"/>
       <path id="DejaVuSans-64" d="M 2906 2969 
L 2906 4863 
L 3481 4863 
L 3481 0 
L 2906 0 
L 2906 525 
Q 2725 213 2448 61 
Q 2172 -91 1784 -91 
Q 1150 -91 751 415 
Q 353 922 353 1747 
Q 353 2572 751 3078 
Q 1150 3584 1784 3584 
Q 2172 3584 2448 3432 
Q 2725 3281 2906 2969 
z
M 947 1747 
Q 947 1113 1208 752 
Q 1469 391 1925 391 
Q 2381 391 2643 752 
Q 2906 1113 2906 1747 
Q 2906 2381 2643 2742 
Q 2381 3103 1925 3103 
Q 1469 3103 1208 2742 
Q 947 2381 947 1747 
z
" transform="scale(0.015625)"/>
      </defs>
      <use xlink:href="#DejaVuSans-4d" transform="translate(0 0.015625)"/>
      <use xlink:href="#DejaVuSans-41" transform="translate(86.279297 0.015625)"/>
      <use xlink:href="#DejaVuSans-45" transform="translate(154.6875 0.015625)"/>
      <use xlink:href="#DejaVuSans-20" transform="translate(217.871094 0.015625)"/>
      <use xlink:href="#DejaVuSans-28" transform="translate(249.658203 0.015625)"/>
      <use xlink:href="#DejaVuSans-70" transform="translate(288.671875 0.015625)"/>
      <use xlink:href="#DejaVuSans-4b" transform="translate(352.148438 0.015625)"/>
      <use xlink:href="#DejaVuSans-69" transform="translate(418.681641 -16.390625)scale(0.7)"/>
      <use xlink:href="#DejaVuSans-20" transform="translate(440.864258 0.015625)"/>
      <use xlink:href="#DejaVuSans-75" transform="translate(472.651367 0.015625)"/>
      <use xlink:href="#DejaVuSans-6e" transform="translate(536.030273 0.015625)"/>
      <use xlink:href="#DejaVuSans-69" transform="translate(599.40918 0.015625)"/>
      <use xlink:href="#DejaVuSans-74" transform="translate(627.192383 0.015625)"/>
      <use xlink:href="#DejaVuSans-73" transform="translate(666.401367 0.015625)"/>
      <use xlink:href="#DejaVuSans-29" transform="translate(718.500977 0.015625)"/>
      <use xlink:href="#DejaVuSans-3a" transform="translate(757.514648 0.015625)"/>
      <use xlink:href="#DejaVuSans-20" transform="translate(791.206055 0.015625)"/>
      <use xlink:href="#STIXNonUnicode-Italic-e230" transform="translate(822.993164 0.015625)"/>
      <use xlink:href="#DejaVuSans-74" transform="translate(904.050186 -16.390625)scale(0.7)"/>
      <use xlink:href="#DejaVuSans-65" transform="translate(931.496475 -16.390625)scale(0.7)"/>
      <use xlink:href="#DejaVuSans-73" transform="translate(974.562881 -16.390625)scale(0.7)"/>
      <use xlink:href="#DejaVuSans-74" transform="translate(1011.032608 -16.390625)scale(0.7)"/>
      <use xlink:href="#DejaVuSans-20" transform="translate(1041.213272 0.015625)"/>
      <use xlink:href="#DejaVuSans-28" transform="translate(1073.000381 0.015625)"/>
      <use xlink:href="#DejaVuSans-51" transform="translate(1112.014053 0.015625)"/>
      <use xlink:href="#DejaVuSans-53" transform="translate(1190.724991 0.015625)"/>
      <use xlink:href="#DejaVuSans-41" transform="translate(1254.201553 0.015625)"/>
      <use xlink:href="#DejaVuSans-52" transform="translate(1322.609756 0.015625)"/>
      <use xlink:href="#DejaVuSans-2d" transform="translate(1392.092178 0.015625)"/>
      <use xlink:href="#DejaVuSans-50" transform="translate(1428.176163 0.015625)"/>
      <use xlink:href="#DejaVuSans-72" transform="translate(1488.478897 0.015625)"/>
      <use xlink:href="#DejaVuSans-65" transform="translate(1529.592178 0.015625)"/>
      <use xlink:href="#DejaVuSans-64" transform="translate(1591.115616 0.015625)"/>
      <use xlink:href="#DejaVuSans-69" transform="translate(1654.592178 0.015625)"/>
      <use xlink:href="#DejaVuSans-63" transform="translate(1682.375381 0.015625)"/>
      <use xlink:href="#DejaVuSans-74" transform="translate(1737.35585 0.015625)"/>
      <use xlink:href="#DejaVuSans-69" transform="translate(1776.564835 0.015625)"/>
      <use xlink:href="#DejaVuSans-6f" transform="translate(1804.348038 0.015625)"/>
      <use xlink:href="#DejaVuSans-6e" transform="translate(1865.529678 0.015625)"/>
      <use xlink:href="#DejaVuSans-29" transform="translate(1928.908585 0.015625)"/>
     </g>
    </g>
   </g>
   <g id="PathCollection_1">
    <path d="M 431.309166 485.440902 
L 447.87419 485.440902 
L 447.87419 468.875878 
L 431.309166 468.875878 
z
" clip-path="url(#p75ee6c1bd1)" style="fill: #ff0000"/>
    <path d="M 342.149457 369.394909 
L 349.177401 357.681669 
L 342.149457 345.968428 
L 335.121513 357.681669 
z
" clip-path="url(#p75ee6c1bd1)" style="fill: #ff0000"/>
    <path d="M 466.738502 565.962304 
C 468.935049 565.962304 471.041928 565.089606 472.595122 563.536412 
C 474.148316 561.983218 475.021013 559.87634 475.021013 557.679792 
C 475.021013 555.483244 474.148316 553.376366 472.595122 551.823172 
C 471.041928 550.269978 468.935049 549.39728 466.738502 549.39728 
C 464.541954 549.39728 462.435075 550.269978 460.881881 551.823172 
C 459.328688 553.376366 458.45599 555.483244 458.45599 557.679792 
C 458.45599 559.87634 459.328688 561.983218 460.881881 563.536412 
C 462.435075 565.089606 464.541954 565.962304 466.738502 565.962304 
z
" clip-path="url(#p75ee6c1bd1)" style="fill: #ff0000"/>
    <path d="M 250.67146 271.521576 
L 267.236483 271.521576 
L 267.236483 254.956553 
L 250.67146 254.956553 
z
" clip-path="url(#p75ee6c1bd1)" style="fill: #0000ff"/>
    <path d="M 168.08698 99.631896 
L 175.114924 87.918655 
L 168.08698 76.205415 
L 161.059035 87.918655 
z
" clip-path="url(#p75ee6c1bd1)" style="fill: #0000ff"/>
    <path d="M 360.129853 320.224314 
C 362.3264 320.224314 364.433279 319.351616 365.986473 317.798423 
C 367.539667 316.245229 368.412364 314.13835 368.412364 311.941802 
C 368.412364 309.745255 367.539667 307.638376 365.986473 306.085182 
C 364.433279 304.531988 362.3264 303.659291 360.129853 303.659291 
C 357.933305 303.659291 355.826426 304.531988 354.273232 306.085182 
C 352.720038 307.638376 351.847341 309.745255 351.847341 311.941802 
C 351.847341 314.13835 352.720038 316.245229 354.273232 317.798423 
C 355.826426 319.351616 357.933305 320.224314 360.129853 320.224314 
z
" clip-path="url(#p75ee6c1bd1)" style="fill: #0000ff"/>
    <path d="M 488.27909 521.351764 
L 504.844113 521.351764 
L 504.844113 504.78674 
L 488.27909 504.78674 
z
" clip-path="url(#p75ee6c1bd1)" style="fill: #ee82ee"/>
    <path d="M 409.846363 345.575998 
L 416.874307 333.862758 
L 409.846363 322.149517 
L 402.818418 333.862758 
z
" clip-path="url(#p75ee6c1bd1)" style="fill: #ee82ee"/>
    <path d="M 506.007568 440.2292 
C 508.204116 440.2292 510.310995 439.356502 511.864188 437.803308 
C 513.417382 436.250114 514.29008 434.143236 514.29008 431.946688 
C 514.29008 429.75014 513.417382 427.643262 511.864188 426.090068 
C 510.310995 424.536874 508.204116 423.664176 506.007568 423.664176 
C 503.81102 423.664176 501.704142 424.536874 500.150948 426.090068 
C 498.597754 427.643262 497.725057 429.75014 497.725057 431.946688 
C 497.725057 434.143236 498.597754 436.250114 500.150948 437.803308 
C 501.704142 439.356502 503.81102 440.2292 506.007568 440.2292 
z
" clip-path="url(#p75ee6c1bd1)" style="fill: #ee82ee"/>
   </g>
   <g id="PathCollection_2"/>
   <g id="PathCollection_3"/>
   <g id="PathCollection_4"/>
   <g id="PathCollection_5"/>
   <g id="PathCollection_6"/>
   <g id="PathCollection_7"/>
   <g id="LineCollection_1">
    <path d="M 294.824823 477.15839 
L 584.358532 477.15839 
" clip-path="url(#p75ee6c1bd1)" style="fill: none; stroke: #000000; stroke-width: 0.933333"/>
    <path d="M 270.774799 357.681669 
L 413.524115 357.681669 
" clip-path="url(#p75ee6c1bd1)" style="fill: none; stroke: #000000; stroke-width: 0.933333"/>
    <path d="M 395.281197 557.679792 
L 538.195806 557.679792 
" clip-path="url(#p75ee6c1bd1)" style="fill: none; stroke: #000000; stroke-width: 0.933333"/>
    <path d="M 113.494348 263.239065 
L 404.413595 263.239065 
" clip-path="url(#p75ee6c1bd1)" style="fill: none; stroke: #000000; stroke-width: 0.933333"/>
    <path d="M 115.533763 87.918655 
L 220.640197 87.918655 
" clip-path="url(#p75ee6c1bd1)" style="fill: none; stroke: #000000; stroke-width: 0.933333"/>
    <path d="M 272.330491 311.941802 
L 447.929214 311.941802 
" clip-path="url(#p75ee6c1bd1)" style="fill: none; stroke: #000000; stroke-width: 0.933333"/>
    <path d="M 374.775233 513.069252 
L 618.34797 513.069252 
" clip-path="url(#p75ee6c1bd1)" style="fill: none; stroke: #000000; stroke-width: 0.933333"/>
    <path d="M 376.165633 333.862758 
L 443.527092 333.862758 
" clip-path="url(#p75ee6c1bd1)" style="fill: none; stroke: #000000; stroke-width: 0.933333"/>
    <path d="M 466.121086 431.946688 
L 545.89405 431.946688 
" clip-path="url(#p75ee6c1bd1)" style="fill: none; stroke: #000000; stroke-width: 0.933333"/>
   </g>
   <g id="LineCollection_2">
    <path d="M 439.591678 499.422867 
L 439.591678 454.893913 
" clip-path="url(#p75ee6c1bd1)" style="fill: none; stroke: #000000; stroke-width: 0.933333"/>
    <path d="M 342.149457 371.340936 
L 342.149457 344.022401 
" clip-path="url(#p75ee6c1bd1)" style="fill: none; stroke: #000000; stroke-width: 0.933333"/>
    <path d="M 466.738502 577.64697 
L 466.738502 537.712614 
" clip-path="url(#p75ee6c1bd1)" style="fill: none; stroke: #000000; stroke-width: 0.933333"/>
    <path d="M 258.953971 278.109245 
L 258.953971 248.368885 
" clip-path="url(#p75ee6c1bd1)" style="fill: none; stroke: #000000; stroke-width: 0.933333"/>
    <path d="M 168.08698 114.717614 
L 168.08698 61.119697 
" clip-path="url(#p75ee6c1bd1)" style="fill: none; stroke: #000000; stroke-width: 0.933333"/>
    <path d="M 360.129853 351.352288 
L 360.129853 272.531317 
" clip-path="url(#p75ee6c1bd1)" style="fill: none; stroke: #000000; stroke-width: 0.933333"/>
    <path d="M 496.561601 536.591876 
L 496.561601 489.546628 
" clip-path="url(#p75ee6c1bd1)" style="fill: none; stroke: #000000; stroke-width: 0.933333"/>
    <path d="M 409.846363 364.337395 
L 409.846363 303.388121 
" clip-path="url(#p75ee6c1bd1)" style="fill: none; stroke: #000000; stroke-width: 0.933333"/>
    <path d="M 506.007568 494.871209 
L 506.007568 369.022167 
" clip-path="url(#p75ee6c1bd1)" style="fill: none; stroke: #000000; stroke-width: 0.933333"/>
   </g>
   <g id="line2d_23">
    <defs>
     <path id="m6225b28971" d="M 0 4.666667 
L 0 -4.666667 
" style="stroke: #000000; stroke-width: 0.933333"/>
    </defs>
    <g clip-path="url(#p75ee6c1bd1)">
     <use xlink:href="#m6225b28971" x="294.824823" y="477.15839" style="stroke: #000000; stroke-width: 0.933333"/>
     <use xlink:href="#m6225b28971" x="270.774799" y="357.681669" style="stroke: #000000; stroke-width: 0.933333"/>
     <use xlink:href="#m6225b28971" x="395.281197" y="557.679792" style="stroke: #000000; stroke-width: 0.933333"/>
     <use xlink:href="#m6225b28971" x="113.494348" y="263.239065" style="stroke: #000000; stroke-width: 0.933333"/>
     <use xlink:href="#m6225b28971" x="115.533763" y="87.918655" style="stroke: #000000; stroke-width: 0.933333"/>
     <use xlink:href="#m6225b28971" x="272.330491" y="311.941802" style="stroke: #000000; stroke-width: 0.933333"/>
     <use xlink:href="#m6225b28971" x="374.775233" y="513.069252" style="stroke: #000000; stroke-width: 0.933333"/>
     <use xlink:href="#m6225b28971" x="376.165633" y="333.862758" style="stroke: #000000; stroke-width: 0.933333"/>
     <use xlink:href="#m6225b28971" x="466.121086" y="431.946688" style="stroke: #000000; stroke-width: 0.933333"/>
    </g>
   </g>
   <g id="line2d_24">
    <g clip-path="url(#p75ee6c1bd1)">
     <use xlink:href="#m6225b28971" x="584.358532" y="477.15839" style="stroke: #000000; stroke-width: 0.933333"/>
     <use xlink:href="#m6225b28971" x="413.524115" y="357.681669" style="stroke: #000000; stroke-width: 0.933333"/>
     <use xlink:href="#m6225b28971" x="538.195806" y="557.679792" style="stroke: #000000; stroke-width: 0.933333"/>
     <use xlink:href="#m6225b28971" x="404.413595" y="263.239065" style="stroke: #000000; stroke-width: 0.933333"/>
     <use xlink:href="#m6225b28971" x="220.640197" y="87.918655" style="stroke: #000000; stroke-width: 0.933333"/>
     <use xlink:href="#m6225b28971" x="447.929214" y="311.941802" style="stroke: #000000; stroke-width: 0.933333"/>
     <use xlink:href="#m6225b28971" x="618.34797" y="513.069252" style="stroke: #000000; stroke-width: 0.933333"/>
     <use xlink:href="#m6225b28971" x="443.527092" y="333.862758" style="stroke: #000000; stroke-width: 0.933333"/>
     <use xlink:href="#m6225b28971" x="545.89405" y="431.946688" style="stroke: #000000; stroke-width: 0.933333"/>
    </g>
   </g>
   <g id="line2d_25">
    <defs>
     <path id="m57deed3391" d="M 4.666667 0 
L -4.666667 -0 
" style="stroke: #000000; stroke-width: 0.933333"/>
    </defs>
    <g clip-path="url(#p75ee6c1bd1)">
     <use xlink:href="#m57deed3391" x="439.591678" y="499.422867" style="stroke: #000000; stroke-width: 0.933333"/>
     <use xlink:href="#m57deed3391" x="342.149457" y="371.340936" style="stroke: #000000; stroke-width: 0.933333"/>
     <use xlink:href="#m57deed3391" x="466.738502" y="577.64697" style="stroke: #000000; stroke-width: 0.933333"/>
     <use xlink:href="#m57deed3391" x="258.953971" y="278.109245" style="stroke: #000000; stroke-width: 0.933333"/>
     <use xlink:href="#m57deed3391" x="168.08698" y="114.717614" style="stroke: #000000; stroke-width: 0.933333"/>
     <use xlink:href="#m57deed3391" x="360.129853" y="351.352288" style="stroke: #000000; stroke-width: 0.933333"/>
     <use xlink:href="#m57deed3391" x="496.561601" y="536.591876" style="stroke: #000000; stroke-width: 0.933333"/>
     <use xlink:href="#m57deed3391" x="409.846363" y="364.337395" style="stroke: #000000; stroke-width: 0.933333"/>
     <use xlink:href="#m57deed3391" x="506.007568" y="494.871209" style="stroke: #000000; stroke-width: 0.933333"/>
    </g>
   </g>
   <g id="line2d_26">
    <g clip-path="url(#p75ee6c1bd1)">
     <use xlink:href="#m57deed3391" x="439.591678" y="454.893913" style="stroke: #000000; stroke-width: 0.933333"/>
     <use xlink:href="#m57deed3391" x="342.149457" y="344.022401" style="stroke: #000000; stroke-width: 0.933333"/>
     <use xlink:href="#m57deed3391" x="466.738502" y="537.712614" style="stroke: #000000; stroke-width: 0.933333"/>
     <use xlink:href="#m57deed3391" x="258.953971" y="248.368885" style="stroke: #000000; stroke-width: 0.933333"/>
     <use xlink:href="#m57deed3391" x="168.08698" y="61.119697" style="stroke: #000000; stroke-width: 0.933333"/>
     <use xlink:href="#m57deed3391" x="360.129853" y="272.531317" style="stroke: #000000; stroke-width: 0.933333"/>
     <use xlink:href="#m57deed3391" x="496.561601" y="489.546628" style="stroke: #000000; stroke-width: 0.933333"/>
     <use xlink:href="#m57deed3391" x="409.846363" y="303.388121" style="stroke: #000000; stroke-width: 0.933333"/>
     <use xlink:href="#m57deed3391" x="506.007568" y="369.022167" style="stroke: #000000; stroke-width: 0.933333"/>
    </g>
   </g>
   <g id="line2d_27"/>
   <g id="patch_3">
    <path d="M 88.251667 603.473333 
L 88.251667 35.293333 
" style="fill: none; stroke: #000000; stroke-width: 0.933333; stroke-linejoin: miter; stroke-linecap: square"/>
   </g>
   <g id="patch_4">
    <path d="M 643.590651 603.473333 
L 643.590651 35.293333 
" style="fill: none; stroke: #000000; stroke-width: 0.933333; stroke-linejoin: miter; stroke-linecap: square"/>
   </g>
   <g id="patch_5">
    <path d="M 88.251667 603.473333 
L 643.590651 603.473333 
" style="fill: none; stroke: #000000; stroke-width: 0.933333; stroke-linejoin: miter; stroke-linecap: square"/>
   </g>
   <g id="patch_6">
    <path d="M 88.251667 35.293333 
L 643.590651 35.293333 
" style="fill: none; stroke: #000000; stroke-width: 0.933333; stroke-linejoin: miter; stroke-linecap: square"/>
   </g>
   <g id="text_14">
    <!-- Pearson's $r$ = -0.92 -->
    <g style="fill: #262626" transform="translate(292.155159 25.96)scale(0.154 -0.154)">
     <defs>
      <path id="DejaVuSans-27" d="M 1147 4666 
L 1147 2931 
L 616 2931 
L 616 4666 
L 1147 4666 
z
" transform="scale(0.015625)"/>
      <path id="DejaVuSans-Oblique-72" d="M 2853 2969 
Q 2766 3016 2653 3041 
Q 2541 3066 2413 3066 
Q 1953 3066 1609 2717 
Q 1266 2369 1153 1784 
L 800 0 
L 225 0 
L 909 3500 
L 1484 3500 
L 1375 2956 
Q 1603 3259 1920 3421 
Q 2238 3584 2597 3584 
Q 2691 3584 2781 3573 
Q 2872 3563 2963 3538 
L 2853 2969 
z
" transform="scale(0.015625)"/>
      <path id="DejaVuSans-3d" d="M 678 2906 
L 4684 2906 
L 4684 2381 
L 678 2381 
L 678 2906 
z
M 678 1631 
L 4684 1631 
L 4684 1100 
L 678 1100 
L 678 1631 
z
" transform="scale(0.015625)"/>
      <path id="DejaVuSans-39" d="M 703 97 
L 703 672 
Q 941 559 1184 500 
Q 1428 441 1663 441 
Q 2288 441 2617 861 
Q 2947 1281 2994 2138 
Q 2813 1869 2534 1725 
Q 2256 1581 1919 1581 
Q 1219 1581 811 2004 
Q 403 2428 403 3163 
Q 403 3881 828 4315 
Q 1253 4750 1959 4750 
Q 2769 4750 3195 4129 
Q 3622 3509 3622 2328 
Q 3622 1225 3098 567 
Q 2575 -91 1691 -91 
Q 1453 -91 1209 -44 
Q 966 3 703 97 
z
M 1959 2075 
Q 2384 2075 2632 2365 
Q 2881 2656 2881 3163 
Q 2881 3666 2632 3958 
Q 2384 4250 1959 4250 
Q 1534 4250 1286 3958 
Q 1038 3666 1038 3163 
Q 1038 2656 1286 2365 
Q 1534 2075 1959 2075 
z
" transform="scale(0.015625)"/>
     </defs>
     <use xlink:href="#DejaVuSans-50" transform="translate(0 0.78125)"/>
     <use xlink:href="#DejaVuSans-65" transform="translate(60.302734 0.78125)"/>
     <use xlink:href="#DejaVuSans-61" transform="translate(121.826172 0.78125)"/>
     <use xlink:href="#DejaVuSans-72" transform="translate(183.105469 0.78125)"/>
     <use xlink:href="#DejaVuSans-73" transform="translate(224.21875 0.78125)"/>
     <use xlink:href="#DejaVuSans-6f" transform="translate(276.318359 0.78125)"/>
     <use xlink:href="#DejaVuSans-6e" transform="translate(337.5 0.78125)"/>
     <use xlink:href="#DejaVuSans-27" transform="translate(400.878906 0.78125)"/>
     <use xlink:href="#DejaVuSans-73" transform="translate(428.369141 0.78125)"/>
     <use xlink:href="#DejaVuSans-20" transform="translate(480.46875 0.78125)"/>
     <use xlink:href="#DejaVuSans-Oblique-72" transform="translate(512.255859 0.78125)"/>
     <use xlink:href="#DejaVuSans-20" transform="translate(553.369141 0.78125)"/>
     <use xlink:href="#DejaVuSans-3d" transform="translate(585.15625 0.78125)"/>
     <use xlink:href="#DejaVuSans-20" transform="translate(668.945312 0.78125)"/>
     <use xlink:href="#DejaVuSans-2d" transform="translate(700.732422 0.78125)"/>
     <use xlink:href="#DejaVuSans-30" transform="translate(736.816406 0.78125)"/>
     <use xlink:href="#DejaVuSans-2e" transform="translate(800.439453 0.78125)"/>
     <use xlink:href="#DejaVuSans-39" transform="translate(832.226562 0.78125)"/>
     <use xlink:href="#DejaVuSans-32" transform="translate(894.099609 0.78125)"/>
    </g>
   </g>
   <g id="legend_1">
    <g id="patch_7">
     <path d="M 490.249963 251.052146 
L 632.810651 251.052146 
Q 635.890651 251.052146 635.890651 247.972146 
L 635.890651 46.073333 
Q 635.890651 42.993333 632.810651 42.993333 
L 490.249963 42.993333 
Q 487.169963 42.993333 487.169963 46.073333 
L 487.169963 247.972146 
Q 487.169963 251.052146 490.249963 251.052146 
z
" style="fill: #eaeaf2; opacity: 0.8; stroke: #cccccc; stroke-linejoin: miter"/>
    </g>
    <g id="line2d_28">
     <defs>
      <path id="me03993efdc" d="M -6.25 6.25 
L 6.25 6.25 
L 6.25 -6.25 
L -6.25 -6.25 
z
" style="stroke: #ff0000; stroke-linejoin: miter"/>
     </defs>
     <g>
      <use xlink:href="#me03993efdc" x="508.729963" y="55.464927" style="fill: #ff0000; stroke: #ff0000; stroke-linejoin: miter"/>
     </g>
    </g>
    <g id="text_15">
     <!-- ECFP + RF -->
     <g style="fill: #262626" transform="translate(536.449963 60.854927)scale(0.154 -0.154)">
      <defs>
       <path id="DejaVuSans-46" d="M 628 4666 
L 3309 4666 
L 3309 4134 
L 1259 4134 
L 1259 2759 
L 3109 2759 
L 3109 2228 
L 1259 2228 
L 1259 0 
L 628 0 
L 628 4666 
z
" transform="scale(0.015625)"/>
       <path id="DejaVuSans-2b" d="M 2944 4013 
L 2944 2272 
L 4684 2272 
L 4684 1741 
L 2944 1741 
L 2944 0 
L 2419 0 
L 2419 1741 
L 678 1741 
L 678 2272 
L 2419 2272 
L 2419 4013 
L 2944 4013 
z
" transform="scale(0.015625)"/>
      </defs>
      <use xlink:href="#DejaVuSans-45"/>
      <use xlink:href="#DejaVuSans-43" x="63.183594"/>
      <use xlink:href="#DejaVuSans-46" x="133.007812"/>
      <use xlink:href="#DejaVuSans-50" x="190.527344"/>
      <use xlink:href="#DejaVuSans-20" x="250.830078"/>
      <use xlink:href="#DejaVuSans-2b" x="282.617188"/>
      <use xlink:href="#DejaVuSans-20" x="366.40625"/>
      <use xlink:href="#DejaVuSans-52" x="398.193359"/>
      <use xlink:href="#DejaVuSans-46" x="467.675781"/>
     </g>
    </g>
    <g id="line2d_29">
     <defs>
      <path id="m20d678085c" d="M -0 8.838835 
L 5.303301 0 
L 0 -8.838835 
L -5.303301 -0 
z
" style="stroke: #ff0000; stroke-linejoin: miter"/>
     </defs>
     <g>
      <use xlink:href="#m20d678085c" x="508.729963" y="78.06924" style="fill: #ff0000; stroke: #ff0000; stroke-linejoin: miter"/>
     </g>
    </g>
    <g id="text_16">
     <!-- ECFP + kNN -->
     <g style="fill: #262626" transform="translate(536.449963 83.45924)scale(0.154 -0.154)">
      <defs>
       <path id="DejaVuSans-6b" d="M 581 4863 
L 1159 4863 
L 1159 1991 
L 2875 3500 
L 3609 3500 
L 1753 1863 
L 3688 0 
L 2938 0 
L 1159 1709 
L 1159 0 
L 581 0 
L 581 4863 
z
" transform="scale(0.015625)"/>
       <path id="DejaVuSans-4e" d="M 628 4666 
L 1478 4666 
L 3547 763 
L 3547 4666 
L 4159 4666 
L 4159 0 
L 3309 0 
L 1241 3903 
L 1241 0 
L 628 0 
L 628 4666 
z
" transform="scale(0.015625)"/>
      </defs>
      <use xlink:href="#DejaVuSans-45"/>
      <use xlink:href="#DejaVuSans-43" x="63.183594"/>
      <use xlink:href="#DejaVuSans-46" x="133.007812"/>
      <use xlink:href="#DejaVuSans-50" x="190.527344"/>
      <use xlink:href="#DejaVuSans-20" x="250.830078"/>
      <use xlink:href="#DejaVuSans-2b" x="282.617188"/>
      <use xlink:href="#DejaVuSans-20" x="366.40625"/>
      <use xlink:href="#DejaVuSans-6b" x="398.193359"/>
      <use xlink:href="#DejaVuSans-4e" x="456.103516"/>
      <use xlink:href="#DejaVuSans-4e" x="530.908203"/>
     </g>
    </g>
    <g id="line2d_30">
     <defs>
      <path id="m57e5dae789" d="M 0 6.25 
C 1.657519 6.25 3.247374 5.591461 4.419417 4.419417 
C 5.591461 3.247374 6.25 1.657519 6.25 0 
C 6.25 -1.657519 5.591461 -3.247374 4.419417 -4.419417 
C 3.247374 -5.591461 1.657519 -6.25 0 -6.25 
C -1.657519 -6.25 -3.247374 -5.591461 -4.419417 -4.419417 
C -5.591461 -3.247374 -6.25 -1.657519 -6.25 0 
C -6.25 1.657519 -5.591461 3.247374 -4.419417 4.419417 
C -3.247374 5.591461 -1.657519 6.25 0 6.25 
z
" style="stroke: #ff0000"/>
     </defs>
     <g>
      <use xlink:href="#m57e5dae789" x="508.729963" y="100.673552" style="fill: #ff0000; stroke: #ff0000"/>
     </g>
    </g>
    <g id="text_17">
     <!-- ECFP + MLP -->
     <g style="fill: #262626" transform="translate(536.449963 106.063552)scale(0.154 -0.154)">
      <defs>
       <path id="DejaVuSans-4c" d="M 628 4666 
L 1259 4666 
L 1259 531 
L 3531 531 
L 3531 0 
L 628 0 
L 628 4666 
z
" transform="scale(0.015625)"/>
      </defs>
      <use xlink:href="#DejaVuSans-45"/>
      <use xlink:href="#DejaVuSans-43" x="63.183594"/>
      <use xlink:href="#DejaVuSans-46" x="133.007812"/>
      <use xlink:href="#DejaVuSans-50" x="190.527344"/>
      <use xlink:href="#DejaVuSans-20" x="250.830078"/>
      <use xlink:href="#DejaVuSans-2b" x="282.617188"/>
      <use xlink:href="#DejaVuSans-20" x="366.40625"/>
      <use xlink:href="#DejaVuSans-4d" x="398.193359"/>
      <use xlink:href="#DejaVuSans-4c" x="484.472656"/>
      <use xlink:href="#DejaVuSans-50" x="540.185547"/>
     </g>
    </g>
    <g id="line2d_31">
     <defs>
      <path id="mc4daf8844f" d="M -6.25 6.25 
L 6.25 6.25 
L 6.25 -6.25 
L -6.25 -6.25 
z
" style="stroke: #0000ff; stroke-linejoin: miter"/>
     </defs>
     <g>
      <use xlink:href="#mc4daf8844f" x="508.729963" y="123.277865" style="fill: #0000ff; stroke: #0000ff; stroke-linejoin: miter"/>
     </g>
    </g>
    <g id="text_18">
     <!-- MD + RF -->
     <g style="fill: #262626" transform="translate(536.449963 128.667865)scale(0.154 -0.154)">
      <defs>
       <path id="DejaVuSans-44" d="M 1259 4147 
L 1259 519 
L 2022 519 
Q 2988 519 3436 956 
Q 3884 1394 3884 2338 
Q 3884 3275 3436 3711 
Q 2988 4147 2022 4147 
L 1259 4147 
z
M 628 4666 
L 1925 4666 
Q 3281 4666 3915 4102 
Q 4550 3538 4550 2338 
Q 4550 1131 3912 565 
Q 3275 0 1925 0 
L 628 0 
L 628 4666 
z
" transform="scale(0.015625)"/>
      </defs>
      <use xlink:href="#DejaVuSans-4d"/>
      <use xlink:href="#DejaVuSans-44" x="86.279297"/>
      <use xlink:href="#DejaVuSans-20" x="163.28125"/>
      <use xlink:href="#DejaVuSans-2b" x="195.068359"/>
      <use xlink:href="#DejaVuSans-20" x="278.857422"/>
      <use xlink:href="#DejaVuSans-52" x="310.644531"/>
      <use xlink:href="#DejaVuSans-46" x="380.126953"/>
     </g>
    </g>
    <g id="line2d_32">
     <defs>
      <path id="m12063e24a0" d="M -0 8.838835 
L 5.303301 0 
L 0 -8.838835 
L -5.303301 -0 
z
" style="stroke: #0000ff; stroke-linejoin: miter"/>
     </defs>
     <g>
      <use xlink:href="#m12063e24a0" x="508.729963" y="145.882177" style="fill: #0000ff; stroke: #0000ff; stroke-linejoin: miter"/>
     </g>
    </g>
    <g id="text_19">
     <!-- MD + kNN -->
     <g style="fill: #262626" transform="translate(536.449963 151.272177)scale(0.154 -0.154)">
      <use xlink:href="#DejaVuSans-4d"/>
      <use xlink:href="#DejaVuSans-44" x="86.279297"/>
      <use xlink:href="#DejaVuSans-20" x="163.28125"/>
      <use xlink:href="#DejaVuSans-2b" x="195.068359"/>
      <use xlink:href="#DejaVuSans-20" x="278.857422"/>
      <use xlink:href="#DejaVuSans-6b" x="310.644531"/>
      <use xlink:href="#DejaVuSans-4e" x="368.554688"/>
      <use xlink:href="#DejaVuSans-4e" x="443.359375"/>
     </g>
    </g>
    <g id="line2d_33">
     <defs>
      <path id="m4eab2bf49f" d="M 0 6.25 
C 1.657519 6.25 3.247374 5.591461 4.419417 4.419417 
C 5.591461 3.247374 6.25 1.657519 6.25 0 
C 6.25 -1.657519 5.591461 -3.247374 4.419417 -4.419417 
C 3.247374 -5.591461 1.657519 -6.25 0 -6.25 
C -1.657519 -6.25 -3.247374 -5.591461 -4.419417 -4.419417 
C -5.591461 -3.247374 -6.25 -1.657519 -6.25 0 
C -6.25 1.657519 -5.591461 3.247374 -4.419417 4.419417 
C -3.247374 5.591461 -1.657519 6.25 0 6.25 
z
" style="stroke: #0000ff"/>
     </defs>
     <g>
      <use xlink:href="#m4eab2bf49f" x="508.729963" y="168.48649" style="fill: #0000ff; stroke: #0000ff"/>
     </g>
    </g>
    <g id="text_20">
     <!-- MD + MLP -->
     <g style="fill: #262626" transform="translate(536.449963 173.87649)scale(0.154 -0.154)">
      <use xlink:href="#DejaVuSans-4d"/>
      <use xlink:href="#DejaVuSans-44" x="86.279297"/>
      <use xlink:href="#DejaVuSans-20" x="163.28125"/>
      <use xlink:href="#DejaVuSans-2b" x="195.068359"/>
      <use xlink:href="#DejaVuSans-20" x="278.857422"/>
      <use xlink:href="#DejaVuSans-4d" x="310.644531"/>
      <use xlink:href="#DejaVuSans-4c" x="396.923828"/>
      <use xlink:href="#DejaVuSans-50" x="452.636719"/>
     </g>
    </g>
    <g id="line2d_34">
     <defs>
      <path id="m47aa7dc44c" d="M -6.25 6.25 
L 6.25 6.25 
L 6.25 -6.25 
L -6.25 -6.25 
z
" style="stroke: #ee82ee; stroke-linejoin: miter"/>
     </defs>
     <g>
      <use xlink:href="#m47aa7dc44c" x="508.729963" y="191.090802" style="fill: #ee82ee; stroke: #ee82ee; stroke-linejoin: miter"/>
     </g>
    </g>
    <g id="text_21">
     <!-- GIN + RF -->
     <g style="fill: #262626" transform="translate(536.449963 196.480802)scale(0.154 -0.154)">
      <defs>
       <path id="DejaVuSans-47" d="M 3809 666 
L 3809 1919 
L 2778 1919 
L 2778 2438 
L 4434 2438 
L 4434 434 
Q 4069 175 3628 42 
Q 3188 -91 2688 -91 
Q 1594 -91 976 548 
Q 359 1188 359 2328 
Q 359 3472 976 4111 
Q 1594 4750 2688 4750 
Q 3144 4750 3555 4637 
Q 3966 4525 4313 4306 
L 4313 3634 
Q 3963 3931 3569 4081 
Q 3175 4231 2741 4231 
Q 1884 4231 1454 3753 
Q 1025 3275 1025 2328 
Q 1025 1384 1454 906 
Q 1884 428 2741 428 
Q 3075 428 3337 486 
Q 3600 544 3809 666 
z
" transform="scale(0.015625)"/>
       <path id="DejaVuSans-49" d="M 628 4666 
L 1259 4666 
L 1259 0 
L 628 0 
L 628 4666 
z
" transform="scale(0.015625)"/>
      </defs>
      <use xlink:href="#DejaVuSans-47"/>
      <use xlink:href="#DejaVuSans-49" x="77.490234"/>
      <use xlink:href="#DejaVuSans-4e" x="106.982422"/>
      <use xlink:href="#DejaVuSans-20" x="181.787109"/>
      <use xlink:href="#DejaVuSans-2b" x="213.574219"/>
      <use xlink:href="#DejaVuSans-20" x="297.363281"/>
      <use xlink:href="#DejaVuSans-52" x="329.150391"/>
      <use xlink:href="#DejaVuSans-46" x="398.632812"/>
     </g>
    </g>
    <g id="line2d_35">
     <defs>
      <path id="mcc6168d633" d="M -0 8.838835 
L 5.303301 0 
L 0 -8.838835 
L -5.303301 -0 
z
" style="stroke: #ee82ee; stroke-linejoin: miter"/>
     </defs>
     <g>
      <use xlink:href="#mcc6168d633" x="508.729963" y="213.695115" style="fill: #ee82ee; stroke: #ee82ee; stroke-linejoin: miter"/>
     </g>
    </g>
    <g id="text_22">
     <!-- GIN + kNN -->
     <g style="fill: #262626" transform="translate(536.449963 219.085115)scale(0.154 -0.154)">
      <use xlink:href="#DejaVuSans-47"/>
      <use xlink:href="#DejaVuSans-49" x="77.490234"/>
      <use xlink:href="#DejaVuSans-4e" x="106.982422"/>
      <use xlink:href="#DejaVuSans-20" x="181.787109"/>
      <use xlink:href="#DejaVuSans-2b" x="213.574219"/>
      <use xlink:href="#DejaVuSans-20" x="297.363281"/>
      <use xlink:href="#DejaVuSans-6b" x="329.150391"/>
      <use xlink:href="#DejaVuSans-4e" x="387.060547"/>
      <use xlink:href="#DejaVuSans-4e" x="461.865234"/>
     </g>
    </g>
    <g id="line2d_36">
     <defs>
      <path id="m33a954ae07" d="M 0 6.25 
C 1.657519 6.25 3.247374 5.591461 4.419417 4.419417 
C 5.591461 3.247374 6.25 1.657519 6.25 0 
C 6.25 -1.657519 5.591461 -3.247374 4.419417 -4.419417 
C 3.247374 -5.591461 1.657519 -6.25 0 -6.25 
C -1.657519 -6.25 -3.247374 -5.591461 -4.419417 -4.419417 
C -5.591461 -3.247374 -6.25 -1.657519 -6.25 0 
C -6.25 1.657519 -5.591461 3.247374 -4.419417 4.419417 
C -3.247374 5.591461 -1.657519 6.25 0 6.25 
z
" style="stroke: #ee82ee"/>
     </defs>
     <g>
      <use xlink:href="#m33a954ae07" x="508.729963" y="236.299427" style="fill: #ee82ee; stroke: #ee82ee"/>
     </g>
    </g>
    <g id="text_23">
     <!-- GIN + MLP -->
     <g style="fill: #262626" transform="translate(536.449963 241.689427)scale(0.154 -0.154)">
      <use xlink:href="#DejaVuSans-47"/>
      <use xlink:href="#DejaVuSans-49" x="77.490234"/>
      <use xlink:href="#DejaVuSans-4e" x="106.982422"/>
      <use xlink:href="#DejaVuSans-20" x="181.787109"/>
      <use xlink:href="#DejaVuSans-2b" x="213.574219"/>
      <use xlink:href="#DejaVuSans-20" x="297.363281"/>
      <use xlink:href="#DejaVuSans-4d" x="329.150391"/>
      <use xlink:href="#DejaVuSans-4c" x="415.429688"/>
      <use xlink:href="#DejaVuSans-50" x="471.142578"/>
     </g>
    </g>
   </g>
  </g>
 </g>
 <defs>
  <clipPath id="p75ee6c1bd1">
   <rect x="88.251667" y="35.293333" width="555.338984" height="568.18"/>
  </clipPath>
 </defs>
</svg>
